<?xml version="1.0" encoding="UTF-8"?>
<svg width="100px" height="32px" viewBox="0 0 100 32" version="1.1" xmlns="http://www.w3.org/2000/svg" xmlns:xlink="http://www.w3.org/1999/xlink">
    <!-- Generator: Sketch 59.1 (86144) - https://sketch.com -->
    <title>LOGO thinkIT zvanican 2</title>
    <desc>Created with Sketch.</desc>
    <g id="Welcome" stroke="none" stroke-width="1" fill="none" fill-rule="evenodd">
        <g id="thinkit-pocetna-outstaffing" transform="translate(-85.000000, -17.000000)">
            <g id="LOGO-thinkIT-zvanican-2" transform="translate(85.000000, 17.000000)">
                <g id="LOGO-thinkIT-zvanican">
                    <path d="M66.9609513,31.9388302 L66.9609513,7.80916981 C66.9609513,7.80916981 67.3433483,0.0611698113 76.3749588,0.0611698113 L99.9478427,0.0611698113 L99.9478427,24.0639623 C99.9478427,24.0639623 99.7287416,31.9388302 91.7746592,31.9388302 L66.9609513,31.9388302 Z" id="Fill-1" fill="#209FDA"></path>
                    <path d="M75.4273483,26.100234 C75.0277228,26.100234 74.8280225,25.9015925 74.8280225,25.5076302 L74.8280225,5.34521509 C74.8280225,4.95004528 75.0277228,4.75223396 75.4273483,4.75223396 L78.0033783,4.75223396 C78.4018801,4.75223396 78.6009813,4.95004528 78.6009813,5.34521509 L78.6009813,25.5076302 C78.6009813,25.9015925 78.4018801,26.100234 78.0033783,26.100234 L75.4273483,26.100234 Z" id="Fill-3" fill="#FFFFFF"></path>
                    <path d="M85.99997,26.100234 C85.6011685,26.100234 85.4014682,25.9015925 85.4014682,25.5076302 L85.4014682,7.42038491 L80.9990712,7.42038491 C80.5977978,7.42038491 80.3997453,7.22370566 80.3997453,6.82763019 L80.3997453,5.34521509 C80.3997453,4.95004528 80.5977978,4.75223396 80.9990712,4.75223396 L93.5786966,4.75223396 C93.9772734,4.75223396 94.1769738,4.95004528 94.1769738,5.34521509 L94.1769738,6.82763019 C94.1769738,7.22370566 93.9772734,7.42038491 93.5786966,7.42038491 L89.1753258,7.42038491 L89.1753258,25.5076302 C89.1753258,25.9015925 88.9756255,26.100234 88.5759251,26.100234 L85.99997,26.100234 Z" id="Fill-5" fill="#FFFFFF"></path>
                    <path d="M6.50354307,26.100234 C5.10908614,26.100234 4.05590262,25.7281585 3.33904869,24.9845358 C2.62219476,24.2428 2.26376779,23.1071019 2.26376779,21.5803094 L2.26376779,13.3238566 L0.666539326,13.3238566 C0.255977528,13.3238566 0.0522322097,13.1317811 0.0522322097,12.7446113 L0.0522322097,11.6148755 C0.0522322097,11.2289887 0.255977528,11.0356302 0.666539326,11.0356302 L2.26376779,11.0356302 L2.26376779,8.80461132 C2.26376779,8.59261132 2.31507865,8.46189434 2.41762547,8.41351698 C2.51882397,8.3657434 2.67350562,8.3028 2.87725094,8.22483774 L5.33590262,7.35615849 C5.53964794,7.27917736 5.69440449,7.3033283 5.79777528,7.42876226 C5.89807491,7.55442264 5.94946067,7.72355472 5.94946067,7.9358566 L5.94946067,11.0356302 L7.88586517,11.0356302 C8.29455431,11.0356302 8.49942322,11.2289887 8.49942322,11.6148755 L8.49942322,12.7446113 C8.49942322,13.1317811 8.29455431,13.3238566 7.88586517,13.3238566 L5.94946067,13.3238566 L5.94946067,21.6687623 C5.94946067,22.3816679 6.10886142,22.8947245 6.42728839,23.2036302 C6.74444195,23.5136679 7.0768015,23.6667245 7.42406742,23.6667245 L7.6391236,23.6667245 C8.04961049,23.6667245 8.25440449,23.8597057 8.25440449,24.2464226 L8.25440449,25.521366 C8.25440449,25.9068755 8.04961049,26.100234 7.6391236,26.100234 L6.50354307,26.100234 Z" id="Fill-7" fill="#424243"></path>
                    <path d="M21.7404419,26.100234 C21.3296554,26.100234 21.1250112,25.9068755 21.1250112,25.521366 L21.1250112,18.6264226 C21.1250112,17.5072528 21.0587191,16.5886868 20.9241873,15.8734415 C20.7927266,15.1594792 20.6030637,14.5984226 20.3578951,14.1932151 C20.1111536,13.7877057 19.8147491,13.5074792 19.4653109,13.3529887 C19.1190936,13.1984226 18.7286067,13.121517 18.2990936,13.121517 C17.1313783,13.121517 16.2307041,13.4736679 15.5962472,14.1786491 C14.9607416,14.884234 14.6433633,16.0767623 14.6433633,17.7570642 L14.6433633,25.521366 C14.6433633,25.9068755 14.438794,26.100234 14.0301049,26.100234 L11.5715281,26.100234 C11.1617903,26.100234 10.9580449,25.9068755 10.9580449,25.521366 L10.9580449,5.24181887 C10.9580449,4.8548 11.1617903,4.66212075 11.5715281,4.66212075 L14.0301049,4.66212075 C14.438794,4.66212075 14.6433633,4.8548 14.6433633,5.24181887 L14.6433633,12.8030264 L14.7047865,12.8030264 C15.0309288,12.2428 15.5128015,11.7501962 16.1485318,11.3250642 C16.7838876,10.9003849 17.6734007,10.6875547 18.8210412,10.6875547 C19.6410412,10.6875547 20.4140749,10.8183472 21.1410412,11.0784226 C21.8680824,11.3396302 22.5022397,11.7788755 23.0455356,12.3969132 C23.587633,13.0153283 24.0183446,13.8309509 24.3344494,14.8450642 C24.6528764,15.8593283 24.8125019,17.1188755 24.8125019,18.6264226 L24.8125019,25.521366 C24.8125019,25.9068755 24.606809,26.100234 24.1970712,26.100234 L21.7404419,26.100234 Z" id="Fill-9" fill="#424243"></path>
                    <path d="M28.4979625,8.13819623 C28.0882247,8.13819623 27.8836554,7.94551698 27.8836554,7.55849811 L27.8836554,5.24181887 C27.8836554,4.8548 28.0882247,4.66212075 28.4979625,4.66212075 L30.9564644,4.66212075 C31.3644045,4.66212075 31.5700225,4.8548 31.5700225,5.24181887 L31.5700225,7.55849811 C31.5700225,7.94551698 31.3644045,8.13819623 30.9564644,8.13819623 L28.4979625,8.13819623 Z" id="Fill-11" fill="#209FDA"></path>
                    <path d="M28.4979625,26.100234 C28.0882247,26.100234 27.8836554,25.9068755 27.8836554,25.521366 L27.8836554,11.6148755 C27.8836554,11.2289887 28.0882247,11.0356302 28.4979625,11.0356302 L30.9564644,11.0356302 C31.3644045,11.0356302 31.5700225,11.2289887 31.5700225,11.6148755 L31.5700225,25.521366 C31.5700225,25.9068755 31.3644045,26.100234 30.9564644,26.100234 L28.4979625,26.100234 Z" id="Fill-13" fill="#424243"></path>
                    <path d="M44.9313858,26.100234 C44.5429963,26.100234 44.3491386,25.9068755 44.3491386,25.521366 L44.3491386,17.3513283 C44.3491386,16.7909509 44.3020225,16.2553283 44.2106367,15.7437057 C44.1182772,15.2318566 43.9645693,14.7824981 43.7497378,14.396083 C43.5349813,14.0101962 43.2470412,13.7006113 42.889588,13.4696679 C42.531161,13.2371396 42.0862172,13.121517 41.5531086,13.121517 C39.4028464,13.121517 38.3286891,14.6275547 38.3286891,17.6403849 L38.3286891,25.521366 C38.3286891,25.9068755 38.1226966,26.100234 37.7132584,26.100234 L35.2565543,26.100234 C34.8458427,26.100234 34.6411236,25.9068755 34.6411236,25.521366 L34.6411236,11.6148755 C34.6411236,11.2289887 34.8458427,11.0356302 35.2565543,11.0356302 L36.7914607,11.0356302 C37.0173034,11.0356302 37.1659176,11.0784226 37.2373034,11.1655925 C37.3084644,11.2524604 37.3650187,11.4030264 37.4060674,11.6148755 L37.7132584,12.8030264 L37.7753558,12.8030264 C37.9590262,12.4551774 38.2,12.1507245 38.4964045,11.8906491 C38.7934082,11.629517 39.1256929,11.4120075 39.49603,11.2383472 C39.8635206,11.0643094 40.2522846,10.9294415 40.6637453,10.8324604 C41.0722846,10.7368377 41.4709363,10.6875547 41.8593258,10.6875547 C42.7208989,10.6875547 43.5248689,10.8136679 44.2720599,11.0643094 C45.0188764,11.3158566 45.669588,11.6823472 46.2225468,12.1652906 C46.7759551,12.6489132 47.2165543,13.2422717 47.5436704,13.9472528 C47.871985,14.6526113 48.0356554,15.4583472 48.0356554,16.3655925 L48.0356554,25.521366 C48.0356554,25.9068755 47.84,26.100234 47.451236,26.100234 L44.9313858,26.100234 Z" id="Fill-15" fill="#424243"></path>
                    <path d="M60.8138727,26.100234 C60.4042097,26.100234 60.076794,25.9452151 59.8309513,25.6372151 L54.7931985,19.5233283 L54.7931985,25.521366 C54.7931985,25.9068755 54.5875056,26.100234 54.1727491,26.100234 L51.727206,26.100234 C51.3133483,26.100234 51.1077303,25.9068755 51.1077303,25.521366 L51.1077303,5.24181887 C51.1077303,4.8548 51.3133483,4.66212075 51.727206,4.66212075 L54.1727491,4.66212075 C54.5875056,4.66212075 54.7931985,4.8548 54.7931985,5.24181887 L54.7931985,17.6403849 L59.9533483,11.4991019 C60.2006142,11.1906491 60.5276554,11.0356302 60.9372434,11.0356302 L63.4875056,11.0356302 C63.9379925,11.0356302 64.0195655,11.1906491 63.7322996,11.4991019 L57.6194157,18.3074038 L64.0709513,25.6372151 C64.3567191,25.9452151 64.2755955,26.100234 63.8257828,26.100234 L60.8138727,26.100234 Z" id="Fill-17" fill="#424243"></path>
                </g>
            </g>
        </g>
    </g>
</svg>